<svg width="320" height="84" viewBox="0 0 320 84" fill="none" xmlns="http://www.w3.org/2000/svg">
  <rect width="84" height="84" rx="22" fill="#050505"/>
  <path d="M20 22C20 17.5817 23.5817 14 28 14H56C60.4183 14 64 17.5817 64 22V30H48V26H36V58H48V50H64V58C64 62.4183 60.4183 66 56 66H28C23.5817 66 20 62.4183 20 58V22Z" fill="#00E05A"/>
  <path d="M184.58 24.24H197.12L173.96 60H161.42L184.58 24.24Z" fill="#00E05A"/>
  <path d="M106.42 31.22C104.047 31.22 102.16 31.9533 100.76 33.42C99.3933 34.8867 98.71 36.8733 98.71 39.38V44.62C98.71 47.1267 99.3933 49.1133 100.76 50.58C102.16 52.0467 104.047 52.78 106.42 52.78C107.853 52.78 109.137 52.5633 110.27 52.13C111.437 51.6633 112.537 50.9467 113.57 49.98L119.17 56C117.67 57.5 115.837 58.6833 113.67 59.55C111.503 60.4167 109.053 60.85 106.32 60.85C102.52 60.85 99.2367 60.1667 96.47 58.8C93.7367 57.4 91.62 55.4 90.12 52.8C88.6533 50.2 87.92 47.1267 87.92 43.58V40.42C87.92 36.84 88.6533 33.7533 90.12 31.16C91.62 28.5667 93.7367 26.5833 96.47 25.21C99.2367 23.8033 102.52 23.1 106.32 23.1C109.053 23.1 111.503 23.5333 113.67 24.4C115.837 25.2667 117.67 26.45 119.17 27.95L113.57 33.97C112.537 33.0033 111.437 32.3033 110.27 31.87C109.137 31.4367 107.853 31.22 106.42 31.22Z" fill="currentColor"/>
  <path d="M126.213 60V24H136.583V60H126.213Z" fill="currentColor"/>
  <path d="M155.843 60.85C152.109 60.85 148.843 60.1667 146.043 58.8C143.276 57.4 141.126 55.4167 139.593 52.85C138.093 50.2833 137.343 47.2667 137.343 43.8V40.2C137.343 36.7 138.093 33.6667 139.593 31.1C141.126 28.5333 143.276 26.5667 146.043 25.2C148.843 23.8 152.109 23.1 155.843 23.1C159.776 23.1 163.159 23.9 165.993 25.5C168.826 27.1 170.943 29.35 172.343 32.25L163.263 36.06C162.529 34.5933 161.493 33.47 160.153 32.69C158.846 31.91 157.343 31.52 155.643 31.52C153.236 31.52 151.309 32.2667 149.863 33.76C148.416 35.22 147.693 37.22 147.693 39.76V44.2C147.693 46.7067 148.416 48.7067 149.863 50.2C151.309 51.66 153.236 52.39 155.643 52.39C157.376 52.39 158.893 51.9833 160.193 51.17C161.493 50.3233 162.526 49.1333 163.293 47.6L172.443 51.19C171.043 54.1567 168.909 56.4567 166.043 58.09C163.209 59.69 159.809 60.5433 155.843 60.65V60.85Z" fill="currentColor"/>
  <path d="M207.078 24H239.328V31.77L218.208 60H206.618L227.348 32.16H207.078V24Z" fill="currentColor"/>
  <path d="M88 72H240" stroke="#00E05A" stroke-width="2" stroke-linecap="round" opacity="0.3"/>
</svg>
